# xmcd
#
# Track frame offsets:
#	150
#	16776
#	39382
#	55285
#	79987
#	112006
#	131386
#	157367
#	185162
#	210281
#	231827
#	258767
#	274990
#	290585
#	304250
#
# Disc length: 4251 seconds
#
# Revision: 0
# Processed by: cddbd v1.5.2PL0 Copyright (c) Steve Scherf et al.
# Submitted via: EasyCDDAExtractor 2011.3.0.0
#
DISCID=d910990f
DTITLE=B. B. King - Talent
DYEAR=2012
DGENRE=Blues
TTITLE0=In the midnight hour (feat. Etta James)
TTITLE1=Everyday i have blues
TTITLE2=Longs Nights
TTITLE3=Born under a bad sign
TTITLE4=All over again
TTITLE5=Why i sing the blues
TTITLE6=Guess who?
TTITLE7=Sweet sixtenn
TTITLE8=So exited
TTITLE9=Nobody loves me but my mother
TTITLE10=There is something on your mind (feat. Etta James
TTITLE11=The other noght blues
TTITLE12=The letter
TTITLE13=Please love me
TTITLE14=Summer in the city
EXTD=
EXTT0=
EXTT1=
EXTT2=
EXTT3=
EXTT4=
EXTT5=
EXTT6=
EXTT7=
EXTT8=
EXTT9=
EXTT10=
EXTT11=
EXTT12=
EXTT13=
EXTT14=
PLAYORDER=
